<svg width="24" height="26" viewBox="0 0 24 26" fill="none" xmlns="http://www.w3.org/2000/svg">
<path d="M23.3571 8.125C23.7107 8.125 24 7.85078 24 7.51562V5.48438C24 5.14922 23.7107 4.875 23.3571 4.875H22.2857V2.4375C22.2857 1.0918 21.1339 0 19.7143 0H2.57143C1.15179 0 0 1.0918 0 2.4375V23.5625C0 24.9082 1.15179 26 2.57143 26H19.7143C21.1339 26 22.2857 24.9082 22.2857 23.5625V21.125H23.3571C23.7107 21.125 24 20.8508 24 20.5156V18.4844C24 18.1492 23.7107 17.875 23.3571 17.875H22.2857V14.625H23.3571C23.7107 14.625 24 14.3508 24 14.0156V11.9844C24 11.6492 23.7107 11.375 23.3571 11.375H22.2857V8.125H23.3571ZM19.7143 23.5625H2.57143V2.4375H19.7143V23.5625ZM11.1429 13C13.0339 13 14.5714 11.5426 14.5714 9.75C14.5714 7.95742 13.0339 6.5 11.1429 6.5C9.25179 6.5 7.71429 7.95742 7.71429 9.75C7.71429 11.5426 9.25179 13 11.1429 13ZM6.34286 19.5H15.9429C16.6071 19.5 17.1429 19.0633 17.1429 18.525V17.55C17.1429 15.9352 15.5304 14.625 13.5429 14.625C12.9643 14.625 12.5411 15.0312 11.1429 15.0312C9.70179 15.0312 9.35357 14.625 8.74286 14.625C6.75536 14.625 5.14286 15.9352 5.14286 17.55V18.525C5.14286 19.0633 5.67857 19.5 6.34286 19.5Z" fill="#BE202E"/>
</svg>
