<svg width="32" height="33" viewBox="0 0 32 33" fill="none" xmlns="http://www.w3.org/2000/svg">
<path d="M21.9666 7.71044L24.7906 10.5331L21.9666 7.71044ZM23.7826 5.22377L16.1466 12.8598C15.7521 13.2538 15.483 13.7557 15.3733 14.3024L14.668 17.8331L18.1986 17.1264C18.7453 17.0171 19.2466 16.7491 19.6413 16.3544L27.2773 8.71844C27.5068 8.48897 27.6888 8.21656 27.813 7.91675C27.9372 7.61694 28.0011 7.29561 28.0011 6.9711C28.0011 6.64659 27.9372 6.32526 27.813 6.02545C27.6888 5.72564 27.5068 5.45323 27.2773 5.22377C27.0478 4.99431 26.7754 4.81229 26.4756 4.6881C26.1758 4.56392 25.8545 4.5 25.53 4.5C25.2055 4.5 24.8841 4.56392 24.5843 4.6881C24.2845 4.81229 24.0121 4.99431 23.7826 5.22377V5.22377Z" stroke="black" stroke-width="2" stroke-linecap="round" stroke-linejoin="round"/>
<path d="M25.334 20.4993V24.4993C25.334 25.2066 25.053 25.8849 24.5529 26.385C24.0528 26.8851 23.3746 27.166 22.6673 27.166H8.00065C7.29341 27.166 6.61513 26.8851 6.11503 26.385C5.61494 25.8849 5.33398 25.2066 5.33398 24.4993V9.83268C5.33398 9.12544 5.61494 8.44716 6.11503 7.94706C6.61513 7.44697 7.29341 7.16602 8.00065 7.16602H12.0007" stroke="black" stroke-width="2" stroke-linecap="round" stroke-linejoin="round"/>
</svg>
