<svg width="29" height="26" viewBox="0 0 29 26" fill="none" xmlns="http://www.w3.org/2000/svg">
<path d="M27.8402 17.9344H9.23086L10.1652 16.0312L25.6902 16.0031C26.2152 16.0031 26.6652 15.6281 26.759 15.1094L28.909 3.075C28.9652 2.75937 28.8809 2.43438 28.6746 2.1875C28.5727 2.066 28.4455 1.96813 28.302 1.90068C28.1584 1.83323 28.002 1.79781 27.8434 1.79688L8.09336 1.73125L7.92461 0.9375C7.81836 0.43125 7.36211 0.0625 6.84336 0.0625H2.01523C1.72267 0.0625 1.44208 0.178722 1.23521 0.385598C1.02833 0.592474 0.912109 0.873058 0.912109 1.16563C0.912109 1.45819 1.02833 1.73878 1.23521 1.94565C1.44208 2.15253 1.72267 2.26875 2.01523 2.26875H5.94961L6.68711 5.775L8.50273 14.5656L6.16523 18.3813C6.04384 18.5451 5.97073 18.7396 5.95416 18.9429C5.93759 19.1461 5.97823 19.3499 6.07148 19.5312C6.25898 19.9031 6.63711 20.1375 7.05586 20.1375H9.01836C8.59998 20.6932 8.374 21.37 8.37461 22.0656C8.37461 23.8344 9.81211 25.2719 11.5809 25.2719C13.3496 25.2719 14.7871 23.8344 14.7871 22.0656C14.7871 21.3687 14.5559 20.6906 14.1434 20.1375H19.1777C18.7594 20.6932 18.5334 21.37 18.534 22.0656C18.534 23.8344 19.9715 25.2719 21.7402 25.2719C23.509 25.2719 24.9465 23.8344 24.9465 22.0656C24.9465 21.3687 24.7152 20.6906 24.3027 20.1375H27.8434C28.4496 20.1375 28.9465 19.6437 28.9465 19.0344C28.9447 18.7421 28.8273 18.4624 28.6201 18.2564C28.4128 18.0503 28.1325 17.9345 27.8402 17.9344ZM8.55273 3.90625L26.5465 3.96562L24.784 13.8344L10.6496 13.8594L8.55273 3.90625ZM11.5809 23.0531C11.0371 23.0531 10.5934 22.6094 10.5934 22.0656C10.5934 21.5219 11.0371 21.0781 11.5809 21.0781C12.1246 21.0781 12.5684 21.5219 12.5684 22.0656C12.5684 22.3275 12.4643 22.5787 12.2791 22.7639C12.0939 22.9491 11.8428 23.0531 11.5809 23.0531ZM21.7402 23.0531C21.1965 23.0531 20.7527 22.6094 20.7527 22.0656C20.7527 21.5219 21.1965 21.0781 21.7402 21.0781C22.284 21.0781 22.7277 21.5219 22.7277 22.0656C22.7277 22.3275 22.6237 22.5787 22.4385 22.7639C22.2533 22.9491 22.0021 23.0531 21.7402 23.0531Z" fill="white"/>
</svg>
