<svg width="33" height="32" viewBox="0 0 33 32" fill="none" xmlns="http://www.w3.org/2000/svg">
<path d="M12.5 12H14.5V24H12.5V12Z" fill="#EB5757"/>
<path d="M18.5 12H20.5V24H18.5V12Z" fill="#EB5757"/>
<path d="M4.5 6V8H6.5V28C6.5 28.5304 6.71071 29.0391 7.08579 29.4142C7.46086 29.7893 7.96957 30 8.5 30H24.5C25.0304 30 25.5391 29.7893 25.9142 29.4142C26.2893 29.0391 26.5 28.5304 26.5 28V8H28.5V6H4.5ZM8.5 28V8H24.5V28H8.5Z" fill="#EB5757"/>
<path d="M12.5 2H20.5V4H12.5V2Z" fill="#EB5757"/>
</svg>
