<svg width="32" height="32" viewBox="0 0 32 32" fill="none" xmlns="http://www.w3.org/2000/svg">
<path d="M16.9998 4V5.19C16.2788 5.45215 15.6817 5.97431 15.3258 6.654C15.0162 7.25286 14.9229 7.94029 15.0618 8.6C15.2275 9.36699 15.6814 10.0411 16.3298 10.483C16.8098 10.808 17.3848 11 17.9998 11C18.1418 11 18.2758 11.027 18.3958 11.076C18.5146 11.1243 18.6225 11.1959 18.7132 11.2866C18.8039 11.3773 18.8755 11.4852 18.9238 11.604C18.9728 11.724 18.9998 11.858 18.9998 12C19.0042 12.197 18.9488 12.3907 18.841 12.5556C18.7332 12.7205 18.578 12.8489 18.3958 12.924C18.2758 12.973 18.1418 13 17.9998 13C17.8578 13 17.7238 12.973 17.6038 12.924C17.485 12.8757 17.3771 12.8041 17.2864 12.7134C17.1958 12.6227 17.1241 12.5148 17.0758 12.396C17.025 12.2702 16.9992 12.1357 16.9998 12H14.9998C14.9999 12.7781 15.308 13.5244 15.8568 14.076C16.178 14.4035 16.5686 14.6547 16.9998 14.811V16H18.9998V14.81C20.1598 14.39 20.9998 13.29 20.9998 12C20.9998 10.565 19.9588 9.345 18.5998 9.062C18.4025 9.02082 18.2014 9.00004 17.9998 9C17.8578 9 17.7238 8.973 17.6038 8.924C17.485 8.87572 17.3771 8.80413 17.2864 8.71344C17.1957 8.62275 17.1241 8.51482 17.0758 8.396C17.025 8.27019 16.9992 8.13568 16.9998 8C16.9998 7.857 17.0268 7.724 17.0758 7.604C17.1243 7.48532 17.196 7.37753 17.2868 7.287C17.3807 7.19432 17.4921 7.12122 17.6145 7.07195C17.7369 7.02269 17.8679 6.99823 17.9998 7C18.5698 7 18.9998 7.43 18.9998 8H20.9998C21.0001 7.68608 20.9501 7.37414 20.8518 7.076C20.7046 6.64271 20.4617 6.24815 20.1411 5.92164C19.8204 5.59513 19.4304 5.34506 18.9998 5.19V4H16.9998ZM10.5158 18C9.90054 18.0012 9.28863 18.0908 8.69881 18.266L8.67881 18.273L3.00781 20.449L4.99181 26.019L9.92181 24.129L17.0588 28.059L29.3828 22.953L28.6168 21.109L17.1798 25.844L10.0778 21.934L6.18781 23.422L5.54681 21.617L9.34381 20.16C9.35281 20.156 9.81981 20 10.5158 20C11.2188 20 12.0378 20.156 12.7378 20.79L12.7518 20.797L12.7558 20.801C13.7858 21.696 14.5638 22.321 15.6458 22.661C16.7278 23.001 17.9558 23.039 20.0058 23.031L19.9958 21.031C17.9838 21.039 16.9328 20.968 16.2458 20.75C15.5578 20.539 15.0698 20.16 14.0778 19.3L14.0658 19.293C12.9088 18.254 11.5348 17.996 10.5158 18Z" fill="black"/>
</svg>
