<svg width="33" height="32" viewBox="0 0 33 32" fill="none" xmlns="http://www.w3.org/2000/svg">
<g clip-path="url(#clip0)">
<path d="M29.15 4.01914C25.5375 0.981643 19.9563 1.43789 16.5 4.95664C13.0438 1.43789 7.46251 0.975393 3.85001 4.01914C-0.849993 7.97539 -0.162493 14.4254 3.18751 17.8441L14.15 29.0129C14.775 29.6504 15.6125 30.0066 16.5 30.0066C17.3938 30.0066 18.225 29.6566 18.85 29.0191L29.8125 17.8504C33.1563 14.4316 33.8563 7.98164 29.15 4.01914V4.01914ZM27.675 15.7379L16.7125 26.9066C16.5625 27.0566 16.4375 27.0566 16.2875 26.9066L5.32501 15.7379C3.04376 13.4129 2.58126 9.01289 5.78126 6.31914C8.21251 4.27539 11.9625 4.58164 14.3125 6.97539L16.5 9.20664L18.6875 6.97539C21.05 4.56914 24.8 4.27539 27.2188 6.31289C30.4125 9.00664 29.9375 13.4316 27.675 15.7379V15.7379Z" fill="white"/>
</g>
<defs>
<clipPath id="clip0">
<rect width="32" height="32" fill="white" transform="translate(0.5)"/>
</clipPath>
</defs>
</svg>
