<svg width="20" height="20" viewBox="0 0 20 20" fill="none" xmlns="http://www.w3.org/2000/svg">
<path d="M10.4258 0.4375C8.5345 0.4375 6.68569 0.998331 5.11314 2.04907C3.5406 3.09981 2.31495 4.59327 1.59119 6.34059C0.867424 8.08791 0.678055 10.0106 1.04703 11.8656C1.416 13.7205 2.32674 15.4244 3.66408 16.7617C5.00142 18.099 6.70529 19.0098 8.56023 19.3788C10.4152 19.7477 12.3379 19.5584 14.0852 18.8346C15.8325 18.1108 17.326 16.8852 18.3767 15.3126C19.4275 13.7401 19.9883 11.8913 19.9883 10C19.9854 7.46474 18.977 5.03414 17.1843 3.24144C15.3916 1.44874 12.961 0.440354 10.4258 0.4375ZM10.4258 18.4375C8.75701 18.4375 7.1257 17.9426 5.73816 17.0155C4.35062 16.0884 3.26917 14.7706 2.63055 13.2289C1.99194 11.6871 1.82485 9.99064 2.15041 8.35393C2.47597 6.71721 3.27957 5.21379 4.45957 4.03379C5.63958 2.85378 7.143 2.05019 8.77971 1.72462C10.4164 1.39906 12.1129 1.56615 13.6547 2.20477C15.1964 2.84338 16.5142 3.92484 17.4413 5.31238C18.3684 6.69992 18.8633 8.33122 18.8633 10C18.8608 12.237 17.971 14.3816 16.3892 15.9634C14.8074 17.5452 12.6628 18.435 10.4258 18.4375ZM7.23857 9.99953C7.23862 10.6685 7.44914 11.3205 7.84032 11.8632C8.23149 12.4059 8.7835 12.8118 9.41814 13.0234C10.0528 13.2349 10.7379 13.2415 11.3765 13.042C12.0151 12.8426 12.5747 12.4474 12.9762 11.9122C13.0205 11.8532 13.0761 11.8034 13.1397 11.7658C13.2033 11.7283 13.2737 11.7036 13.3468 11.6932C13.42 11.6828 13.4944 11.6869 13.566 11.7053C13.6375 11.7237 13.7047 11.756 13.7638 11.8004C13.8229 11.8448 13.8726 11.9004 13.9102 11.964C13.9478 12.0276 13.9724 12.0979 13.9828 12.1711C13.9932 12.2442 13.9891 12.3187 13.9707 12.3902C13.9523 12.4618 13.92 12.529 13.8756 12.5881C13.3324 13.3119 12.5752 13.8465 11.7113 14.1162C10.8474 14.3858 9.92055 14.3768 9.06203 14.0905C8.20351 13.8042 7.45681 13.2551 6.9277 12.5208C6.39859 11.7866 6.11387 10.9045 6.11387 9.99953C6.11387 9.09452 6.39859 8.21245 6.9277 7.47823C7.45681 6.74401 8.20351 6.19486 9.06203 5.90854C9.92055 5.62222 10.8474 5.61325 11.7113 5.8829C12.5752 6.15255 13.3324 6.68716 13.8756 7.411C13.9652 7.53027 14.0038 7.68026 13.9828 7.82797C13.9619 7.97569 13.8831 8.10902 13.7638 8.19864C13.6445 8.28826 13.4945 8.32683 13.3468 8.30587C13.1991 8.2849 13.0658 8.20612 12.9762 8.08684C12.5747 7.55171 12.0151 7.15644 11.3765 6.95702C10.7379 6.7576 10.0528 6.76413 9.41814 6.9757C8.7835 7.18727 8.23149 7.59314 7.84032 8.13584C7.44914 8.67853 7.23862 9.33055 7.23857 9.99953Z" fill="#BE202E"/>
</svg>
