<svg width="33" height="29" viewBox="0 0 33 29" fill="none" xmlns="http://www.w3.org/2000/svg">
<path d="M29.15 2.01914C25.5375 -1.01836 19.9563 -0.562107 16.5 2.95664C13.0438 -0.562107 7.46251 -1.02461 3.85001 2.01914C-0.849993 5.97539 -0.162493 12.4254 3.18751 15.8441L14.15 27.0129C14.775 27.6504 15.6125 28.0066 16.5 28.0066C17.3938 28.0066 18.225 27.6566 18.85 27.0191L29.8125 15.8504C33.1563 12.4316 33.8563 5.98164 29.15 2.01914ZM27.675 13.7379L16.7125 24.9066C16.5625 25.0566 16.4375 25.0566 16.2875 24.9066L5.32501 13.7379C3.04376 11.4129 2.58126 7.01289 5.78126 4.31914C8.21251 2.27539 11.9625 2.58164 14.3125 4.97539L16.5 7.20664L18.6875 4.97539C21.05 2.56914 24.8 2.27539 27.2188 4.31289C30.4125 7.00664 29.9375 11.4316 27.675 13.7379Z" fill="white"/>
</svg>
