<svg width="16" height="16" viewBox="0 0 16 16" fill="none" xmlns="http://www.w3.org/2000/svg">
<path d="M8 0.828125C6.58154 0.828125 5.19493 1.24875 4.01552 2.0368C2.83611 2.82486 1.91688 3.94495 1.37405 5.25544C0.831232 6.56593 0.689205 8.00796 0.965934 9.39916C1.24266 10.7904 1.92572 12.0683 2.92872 13.0713C3.93173 14.0743 5.20963 14.7573 6.60084 15.0341C7.99205 15.3108 9.43407 15.1688 10.7446 14.6259C12.055 14.0831 13.1751 13.1639 13.9632 11.9845C14.7513 10.8051 15.1719 9.41846 15.1719 8C15.1697 6.09856 14.4134 4.27561 13.0689 2.93108C11.7244 1.58656 9.90144 0.830265 8 0.828125ZM8 14.3281C6.74842 14.3281 5.52494 13.957 4.48429 13.2616C3.44363 12.5663 2.63254 11.578 2.15358 10.4217C1.67462 9.26536 1.5493 7.99298 1.79347 6.76544C2.03764 5.53791 2.64034 4.41034 3.52534 3.52534C4.41035 2.64034 5.53791 2.03764 6.76545 1.79347C7.99298 1.5493 9.26536 1.67461 10.4217 2.15357C11.578 2.63254 12.5663 3.44363 13.2616 4.48428C13.957 5.52494 14.3281 6.74841 14.3281 8C14.3262 9.67774 13.6589 11.2862 12.4726 12.4726C11.2862 13.6589 9.67774 14.3262 8 14.3281ZM5.60959 7.99965C5.60963 8.50139 5.76752 8.99039 6.0609 9.39742C6.35428 9.80444 6.76829 10.1088 7.24427 10.2675C7.72026 10.4262 8.2341 10.4311 8.71303 10.2815C9.19196 10.132 9.61169 9.83552 9.91278 9.43416C9.94607 9.38987 9.98775 9.35257 10.0354 9.32438C10.0831 9.2962 10.1359 9.27768 10.1908 9.2699C10.2456 9.26211 10.3015 9.2652 10.3551 9.279C10.4088 9.2928 10.4592 9.31703 10.5035 9.35032C10.5478 9.3836 10.5851 9.42528 10.6133 9.47298C10.6415 9.52068 10.66 9.57346 10.6678 9.62832C10.6756 9.68317 10.6725 9.73902 10.6587 9.79268C10.6449 9.84634 10.6206 9.89675 10.5874 9.94105C10.1799 10.4839 9.61206 10.8849 8.96414 11.0871C8.31621 11.2894 7.62108 11.2826 6.97718 11.0679C6.33329 10.8532 5.77327 10.4413 5.37644 9.89062C4.97961 9.33996 4.76607 8.6784 4.76607 7.99965C4.76607 7.32089 4.97961 6.65934 5.37644 6.10867C5.77327 5.55801 6.33329 5.14614 6.97718 4.9314C7.62108 4.71667 8.31621 4.70994 8.96414 4.91218C9.61206 5.11442 10.1799 5.51537 10.5874 6.05825C10.6546 6.1477 10.6835 6.2602 10.6678 6.37098C10.6521 6.48176 10.593 6.58176 10.5035 6.64898C10.4141 6.7162 10.3016 6.74513 10.1908 6.7294C10.08 6.71368 9.98 6.65459 9.91278 6.56513C9.61169 6.16378 9.19196 5.86733 8.71303 5.71776C8.2341 5.5682 7.72026 5.5731 7.24427 5.73177C6.76829 5.89045 6.35428 6.19486 6.0609 6.60188C5.76752 7.0089 5.60963 7.49791 5.60959 7.99965Z" fill="#BE202E"/>
</svg>
