<svg width="10" height="16" viewBox="0 0 10 16" fill="none" xmlns="http://www.w3.org/2000/svg">
<path d="M2.01609 15.2602C1.81874 15.2613 1.6231 15.2247 1.44039 15.1526C1.25769 15.0805 1.09151 14.9742 0.951387 14.8398C0.810834 14.705 0.699273 14.5447 0.623141 14.368C0.547009 14.1914 0.507812 14.0019 0.507813 13.8105C0.507812 13.6191 0.547009 13.4296 0.623141 13.253C0.699273 13.0763 0.810834 12.916 0.951387 12.7812L5.91502 8.01167L1.14633 3.21314C0.867034 2.94152 0.710265 2.57409 0.710265 2.1911C0.710265 1.80811 0.867034 1.44068 1.14633 1.16906C1.28574 1.03318 1.4516 0.925326 1.63433 0.851727C1.81707 0.778127 2.01308 0.740234 2.21104 0.740234C2.409 0.740234 2.60501 0.778127 2.78775 0.851727C2.97048 0.925326 3.13634 1.03318 3.27575 1.16906L9.06415 6.96788C9.33891 7.23888 9.49281 7.60321 9.49281 7.98268C9.49281 8.36214 9.33891 8.72648 9.06415 8.99748L3.0658 14.7963C2.9312 14.9368 2.76914 15.0502 2.58896 15.1298C2.40879 15.2094 2.21409 15.2537 2.01609 15.2602Z" fill="#BE202E"/>
</svg>
